<mxfile host="app.diagrams.net" agent="Mozilla/5.0 (Windows NT 10.0; Win64; x64) AppleWebKit/537.36 (KHTML, like Gecko) Chrome/128.0.0.0 Safari/537.36" border="50" scale="3" compressed="false" locked="false" version="24.7.17">
  <diagram name="Blank" id="YmL12bMKpDGza6XwsDPr">
    <mxGraphModel dx="1221" dy="618" grid="0" gridSize="10" guides="1" tooltips="1" connect="1" arrows="1" fold="1" page="0" pageScale="1" pageWidth="827" pageHeight="1169" background="none" math="1" shadow="0">
      <root>
        <mxCell id="X5NqExCQtvZxIxQ7pmgY-0" />
        <mxCell id="1" parent="X5NqExCQtvZxIxQ7pmgY-0" />
        <mxCell id="JvMs9fb526wz0YWIvzSq-1" value="背景" style="rounded=1;whiteSpace=wrap;html=1;" vertex="1" parent="1">
          <mxGeometry x="26" y="235" width="120" height="60" as="geometry" />
        </mxCell>
        <mxCell id="JvMs9fb526wz0YWIvzSq-12" style="edgeStyle=orthogonalEdgeStyle;rounded=0;orthogonalLoop=1;jettySize=auto;html=1;exitX=1;exitY=0.5;exitDx=0;exitDy=0;entryX=0;entryY=0.5;entryDx=0;entryDy=0;" edge="1" parent="1" source="JvMs9fb526wz0YWIvzSq-2" target="JvMs9fb526wz0YWIvzSq-5">
          <mxGeometry relative="1" as="geometry" />
        </mxCell>
        <mxCell id="JvMs9fb526wz0YWIvzSq-2" value="车云网络" style="rounded=1;whiteSpace=wrap;html=1;" vertex="1" parent="1">
          <mxGeometry x="194" y="141" width="120" height="60" as="geometry" />
        </mxCell>
        <mxCell id="JvMs9fb526wz0YWIvzSq-3" value="边缘计算" style="rounded=1;whiteSpace=wrap;html=1;" vertex="1" parent="1">
          <mxGeometry x="194" y="280" width="120" height="60" as="geometry" />
        </mxCell>
        <mxCell id="JvMs9fb526wz0YWIvzSq-4" value="移动物联网" style="rounded=1;whiteSpace=wrap;html=1;" vertex="1" parent="1">
          <mxGeometry x="374" y="213" width="120" height="60" as="geometry" />
        </mxCell>
        <mxCell id="JvMs9fb526wz0YWIvzSq-5" value="车路协同" style="rounded=1;whiteSpace=wrap;html=1;" vertex="1" parent="1">
          <mxGeometry x="374" y="141" width="120" height="60" as="geometry" />
        </mxCell>
        <mxCell id="JvMs9fb526wz0YWIvzSq-6" value="任务卸载" style="rounded=1;whiteSpace=wrap;html=1;" vertex="1" parent="1">
          <mxGeometry x="374" y="295" width="120" height="60" as="geometry" />
        </mxCell>
        <mxCell id="JvMs9fb526wz0YWIvzSq-7" value="缓存" style="rounded=1;whiteSpace=wrap;html=1;" vertex="1" parent="1">
          <mxGeometry x="374" y="381" width="120" height="60" as="geometry" />
        </mxCell>
        <mxCell id="JvMs9fb526wz0YWIvzSq-9" value="" style="endArrow=classic;html=1;rounded=0;entryX=0;entryY=0.75;entryDx=0;entryDy=0;" edge="1" parent="1" target="JvMs9fb526wz0YWIvzSq-2">
          <mxGeometry width="50" height="50" relative="1" as="geometry">
            <mxPoint x="145" y="264" as="sourcePoint" />
            <mxPoint x="195" y="207" as="targetPoint" />
          </mxGeometry>
        </mxCell>
        <mxCell id="JvMs9fb526wz0YWIvzSq-10" value="" style="endArrow=classic;html=1;rounded=0;entryX=0;entryY=0.5;entryDx=0;entryDy=0;exitX=1;exitY=0.5;exitDx=0;exitDy=0;" edge="1" parent="1" source="JvMs9fb526wz0YWIvzSq-1" target="JvMs9fb526wz0YWIvzSq-3">
          <mxGeometry width="50" height="50" relative="1" as="geometry">
            <mxPoint x="155" y="267" as="sourcePoint" />
            <mxPoint x="204" y="196" as="targetPoint" />
          </mxGeometry>
        </mxCell>
        <mxCell id="JvMs9fb526wz0YWIvzSq-15" value="" style="endArrow=classic;html=1;rounded=0;entryX=0;entryY=0.5;entryDx=0;entryDy=0;exitX=1;exitY=0.5;exitDx=0;exitDy=0;" edge="1" parent="1" source="JvMs9fb526wz0YWIvzSq-3" target="JvMs9fb526wz0YWIvzSq-4">
          <mxGeometry width="50" height="50" relative="1" as="geometry">
            <mxPoint x="156" y="275" as="sourcePoint" />
            <mxPoint x="204" y="320" as="targetPoint" />
          </mxGeometry>
        </mxCell>
        <mxCell id="JvMs9fb526wz0YWIvzSq-18" value="" style="endArrow=classic;html=1;rounded=0;entryX=0;entryY=0.5;entryDx=0;entryDy=0;exitX=1;exitY=0.5;exitDx=0;exitDy=0;" edge="1" parent="1" source="JvMs9fb526wz0YWIvzSq-3" target="JvMs9fb526wz0YWIvzSq-6">
          <mxGeometry width="50" height="50" relative="1" as="geometry">
            <mxPoint x="324" y="320" as="sourcePoint" />
            <mxPoint x="390" y="270" as="targetPoint" />
          </mxGeometry>
        </mxCell>
        <mxCell id="JvMs9fb526wz0YWIvzSq-19" value="" style="endArrow=classic;html=1;rounded=0;entryX=0;entryY=0.5;entryDx=0;entryDy=0;exitX=1;exitY=0.5;exitDx=0;exitDy=0;" edge="1" parent="1" source="JvMs9fb526wz0YWIvzSq-3" target="JvMs9fb526wz0YWIvzSq-7">
          <mxGeometry width="50" height="50" relative="1" as="geometry">
            <mxPoint x="324" y="320" as="sourcePoint" />
            <mxPoint x="380" y="349" as="targetPoint" />
          </mxGeometry>
        </mxCell>
        <mxCell id="JvMs9fb526wz0YWIvzSq-21" value="资源分配" style="rounded=1;whiteSpace=wrap;html=1;" vertex="1" parent="1">
          <mxGeometry x="558" y="343" width="120" height="60" as="geometry" />
        </mxCell>
        <mxCell id="JvMs9fb526wz0YWIvzSq-22" value="" style="endArrow=classic;html=1;rounded=0;entryX=0;entryY=0.5;entryDx=0;entryDy=0;exitX=1;exitY=0.5;exitDx=0;exitDy=0;" edge="1" parent="1" source="JvMs9fb526wz0YWIvzSq-6" target="JvMs9fb526wz0YWIvzSq-21">
          <mxGeometry width="50" height="50" relative="1" as="geometry">
            <mxPoint x="324" y="320" as="sourcePoint" />
            <mxPoint x="380" y="349" as="targetPoint" />
          </mxGeometry>
        </mxCell>
        <mxCell id="JvMs9fb526wz0YWIvzSq-23" value="" style="endArrow=classic;html=1;rounded=0;entryX=0;entryY=0.5;entryDx=0;entryDy=0;exitX=1;exitY=0.5;exitDx=0;exitDy=0;" edge="1" parent="1" source="JvMs9fb526wz0YWIvzSq-7" target="JvMs9fb526wz0YWIvzSq-21">
          <mxGeometry width="50" height="50" relative="1" as="geometry">
            <mxPoint x="324" y="320" as="sourcePoint" />
            <mxPoint x="380" y="349" as="targetPoint" />
          </mxGeometry>
        </mxCell>
      </root>
    </mxGraphModel>
  </diagram>
</mxfile>
